<svg xmlns="http://www.w3.org/2000/svg" viewBox="0 0 135.24 78.405"><defs><clipPath id="a" clipPathUnits="userSpaceOnUse"><path d="M0 841.89h595.276V0H0Z" transform="translate(-106.834 -643.649)"/></clipPath><clipPath id="b" clipPathUnits="userSpaceOnUse"><path d="M0 841.89h595.276V0H0Z" transform="translate(-138.03 -643.649)"/></clipPath><clipPath id="c" clipPathUnits="userSpaceOnUse"><path d="M0 841.89h595.276V0H0Z" transform="translate(-201.797 -643.65)"/></clipPath><clipPath id="d" clipPathUnits="userSpaceOnUse"><path d="M0 841.89h595.276V0H0Z" transform="translate(-232.042 -643.65)"/></clipPath><clipPath id="e" clipPathUnits="userSpaceOnUse"><path d="M0 841.89h595.276V0H0Z" transform="translate(-263.245 -626.542)"/></clipPath><clipPath id="f" clipPathUnits="userSpaceOnUse"><path d="M0 841.89h595.276V0H0Z" transform="translate(-263.245 -643.647)"/></clipPath><clipPath id="g" clipPathUnits="userSpaceOnUse"><path d="M0 841.89h595.276V0H0Z" transform="translate(-251.027 -633.319)"/></clipPath><clipPath id="h" clipPathUnits="userSpaceOnUse"><path d="M0 841.89h595.276V0H0Z" transform="translate(-320.893 -641.872)"/></clipPath><clipPath id="i" clipPathUnits="userSpaceOnUse"><path d="M0 841.89h595.276V0H0Z" transform="translate(-351.804 -641.875)"/></clipPath><clipPath id="j" clipPathUnits="userSpaceOnUse"><path d="M0 841.89h595.276V0H0Z" transform="translate(-384.542 -626.542)"/></clipPath><clipPath id="k" clipPathUnits="userSpaceOnUse"><path d="M0 841.89h595.276V0H0Z" transform="translate(-418.691 -626.542)"/></clipPath><clipPath id="l" clipPathUnits="userSpaceOnUse"><path d="M0 841.89h595.276V0H0Z" transform="translate(-458.207 -643.65)"/></clipPath><clipPath id="m" clipPathUnits="userSpaceOnUse"><path d="M0 841.89h595.276V0H0Z" transform="translate(-476.21 -641.872)"/></clipPath><clipPath id="n" clipPathUnits="userSpaceOnUse"><path d="M0 841.89h595.276V0H0Z" transform="translate(-476.21 -633.319)"/></clipPath><clipPath id="o" clipPathUnits="userSpaceOnUse"><path d="M0 841.89h595.276V0H0Z" transform="translate(-488.43 -626.542)"/></clipPath><clipPath id="p" clipPathUnits="userSpaceOnUse"><path d="M0 841.89h595.276V0H0Z" transform="translate(-143.664 -595.01)"/></clipPath><clipPath id="q" clipPathUnits="userSpaceOnUse"><path d="M0 841.89h595.276V0H0Z" transform="translate(-205.473 -617.245)"/></clipPath><clipPath id="r" clipPathUnits="userSpaceOnUse"><path d="M0 841.89h595.276V0H0Z" transform="translate(-170.024 -617.245)"/></clipPath><clipPath id="s" clipPathUnits="userSpaceOnUse"><path d="M0 841.89h595.276V0H0Z" transform="translate(-238.81 -618.689)"/></clipPath><clipPath id="t" clipPathUnits="userSpaceOnUse"><path d="M0 841.89h595.276V0H0Z" transform="translate(-362.833 -604.03)"/></clipPath><clipPath id="u" clipPathUnits="userSpaceOnUse"><path d="M0 841.89h595.276V0H0Z" transform="translate(-438.362 -617.245)"/></clipPath><clipPath id="v" clipPathUnits="userSpaceOnUse"><path d="M0 841.89h595.276V0H0Z" transform="translate(-402.912 -617.245)"/></clipPath><clipPath id="w" clipPathUnits="userSpaceOnUse"><path d="M0 841.89h595.276V0H0Z" transform="translate(-469.697 -618.689)"/></clipPath><clipPath id="x" clipPathUnits="userSpaceOnUse"><path d="M0 841.89h595.276V0H0Z" transform="translate(-107.177 -556.269)"/></clipPath><clipPath id="y" clipPathUnits="userSpaceOnUse"><path d="M0 841.89h595.276V0H0Z" transform="translate(-179.992 -555.366)"/></clipPath><clipPath id="z" clipPathUnits="userSpaceOnUse"><path d="M0 841.89h595.276V0H0Z" transform="translate(-219.372 -555.863)"/></clipPath><clipPath id="A" clipPathUnits="userSpaceOnUse"><path d="M0 841.89h595.276V0H0Z" transform="translate(-362.652 -555.322)"/></clipPath><clipPath id="B" clipPathUnits="userSpaceOnUse"><path d="M0 841.89h595.276V0H0Z" transform="translate(-412.88 -555.366)"/></clipPath><clipPath id="C" clipPathUnits="userSpaceOnUse"><path d="M0 841.89h595.276V0H0Z" transform="translate(-450.304 -555.863)"/></clipPath><clipPath id="D" clipPathUnits="userSpaceOnUse"><path d="M0 841.89h595.276V0H0Z" transform="translate(-275.038 -677.504)"/></clipPath><clipPath id="E" clipPathUnits="userSpaceOnUse"><path d="M0 841.89h595.276V0H0Z" transform="translate(-304.38 -688.565)"/></clipPath><clipPath id="F" clipPathUnits="userSpaceOnUse"><path d="M0 841.89h595.276V0H0Z" transform="translate(-275.038 -656.442)"/></clipPath><clipPath id="G" clipPathUnits="userSpaceOnUse"><path d="M0 841.89h595.276V0H0Z" transform="translate(-302.972 -655.979)"/></clipPath><clipPath id="H" clipPathUnits="userSpaceOnUse"><path d="M0 841.89h595.276V0H0Z" transform="translate(-290.53 -722.938)"/></clipPath><clipPath id="I" clipPathUnits="userSpaceOnUse"><path d="M0 841.89h595.276V0H0Z" transform="translate(-320.929 -714.792)"/></clipPath><clipPath id="J" clipPathUnits="userSpaceOnUse"><path d="M0 841.89h595.276V0H0Z" transform="translate(-343.183 -692.539)"/></clipPath><clipPath id="K" clipPathUnits="userSpaceOnUse"><path d="M0 841.89h595.276V0H0Z" transform="translate(-357.284 -666.467)"/></clipPath><clipPath id="L" clipPathUnits="userSpaceOnUse"><path d="M0 841.89h595.276V0H0Z" transform="translate(-233.413 -659.465)"/></clipPath><clipPath id="M" clipPathUnits="userSpaceOnUse"><path d="M0 841.89h595.276V0H0Z" transform="translate(-237.877 -692.539)"/></clipPath><clipPath id="N" clipPathUnits="userSpaceOnUse"><path d="M0 841.89h595.276V0H0Z" transform="translate(-260.13 -714.792)"/></clipPath><clipPath id="P" clipPathUnits="userSpaceOnUse"><path d="M0 841.89h595.276V0H0Z" transform="translate(-260.349 -512.431)"/></clipPath><clipPath id="Q" clipPathUnits="userSpaceOnUse"><path d="M0 841.89h595.276V0H0Z" transform="translate(-275.674 -512.421)"/></clipPath><clipPath id="R" clipPathUnits="userSpaceOnUse"><path d="M0 841.89h595.276V0H0Z" transform="translate(-292.334 -516.822)"/></clipPath><clipPath id="S" clipPathUnits="userSpaceOnUse"><path d="M0 841.89h595.276V0H0Z" transform="translate(-307.939 -512.392)"/></clipPath><clipPath id="T" clipPathUnits="userSpaceOnUse"><path d="M0 841.89h595.276V0H0Z" transform="translate(-325.607 -512.421)"/></clipPath><clipPath id="U" clipPathUnits="userSpaceOnUse"><path d="M0 841.89h595.276V0H0Z" transform="translate(-311.455 -586.593)"/></clipPath><clipPath id="V" clipPathUnits="userSpaceOnUse"><path d="M0 841.89h595.276V0H0Z" transform="translate(-294.322 -555.321)"/></clipPath><linearGradient id="O" x1="0" x2="1" y1="0" y2="0" gradientTransform="rotate(180 77.982 64.995) scale(95.32097)" gradientUnits="userSpaceOnUse" spreadMethod="pad"><stop offset="0" stop-color="#d70613"/><stop offset=".346" stop-color="#fff"/><stop offset=".64" stop-color="#fff"/><stop offset="1" stop-color="#399e35"/></linearGradient></defs><path fill="#162739" d="M0 0a.892.892 0 0 1-.875-.888v-17.107c0-.483.393-.88.888-.887a.89.89 0 0 1 .887.889V-.888C.9-.398.502 0 0 0" clip-path="url(#a)" transform="matrix(.35278 0 0 -.35278 .309 31.968)"/><path fill="#162739" d="M0 0a.893.893 0 0 1-.876-.89v-14.336L-11.483-.376a.913.913 0 0 1-.723.374.89.89 0 0 1-.888-.888v-17.106a.889.889 0 0 1 1.776.001V-3.66L-.711-18.51a.912.912 0 0 1 .723-.373.89.89 0 0 1 .888.888V-.888C.9-.395.504.03 0 0" clip-path="url(#b)" transform="matrix(.35278 0 0 -.35278 11.314 31.968)"/><path fill="#162739" d="M0 0h-14.635c-.35.024-.623-.151-.787-.429a.9.9 0 0 1-.001-.915.882.882 0 0 1 .769-.431h6.443v-16.203a.873.873 0 0 1 .432-.787.894.894 0 0 1 .914.001.865.865 0 0 1 .429.769v16.22H-.01c.335.001.624.154.787.432a.903.903 0 0 1-.001.914C.614-.155.3.033 0 0" clip-path="url(#c)" transform="matrix(.35278 0 0 -.35278 33.81 31.967)"/><path fill="#162739" d="M0 0a.893.893 0 0 1-.876-.89v-7.665h-10.442v7.668c0 .492-.432.915-.901.887a.893.893 0 0 1-.875-.89v-17.105a.89.89 0 0 1 1.776 0v7.664H-.876V-18a.89.89 0 0 1 .888-.888.89.89 0 0 1 .888.893V-.887A.892.892 0 0 1 0 0" clip-path="url(#d)" transform="matrix(.35278 0 0 -.35278 44.48 31.967)"/><path fill="#162739" d="M0 0h-12.219a.888.888 0 0 1 .001-1.775H0A.888.888 0 0 1 0 0" clip-path="url(#e)" transform="matrix(.35278 0 0 -.35278 55.487 38.003)"/><path fill="#162739" d="M0 0h-12.218a.888.888 0 0 1 0-1.775H0A.889.889 0 0 1 0 0" clip-path="url(#f)" transform="matrix(.35278 0 0 -.35278 55.487 31.969)"/><path fill="#162739" d="M0 0h10.996a.889.889 0 0 1 0 1.776H0A.889.889 0 0 1 0 0" clip-path="url(#g)" transform="matrix(.35278 0 0 -.35278 51.177 35.612)"/><path fill="#162739" d="M0 0c2.127 0 4.074-.775 5.482-2.183a1.1 1.1 0 0 1 .627-.26.888.888 0 0 1 .627 1.515C4.993.815 2.601 1.775 0 1.775c-5.382 0-9.44-4.058-9.44-9.44s4.058-9.44 9.44-9.44c2.601 0 4.993.96 6.731 2.698.135.132.265.443.265.632v6.11a.888.888 0 0 1-.887.887h-8.553a.888.888 0 0 1 0-1.775h7.666v-4.832C3.836-14.641 1.993-15.33 0-15.33c-4.442 0-7.666 3.223-7.666 7.665S-4.442 0 0 0" clip-path="url(#h)" transform="matrix(.35278 0 0 -.35278 75.824 32.595)"/><path fill="#162739" d="M0 0c1.357 0 2.648-.284 3.54-.779 1.148-.635 1.682-1.558 1.682-2.903 0-1.348-.536-2.275-1.684-2.917-.572-.32-1.28-.545-2.107-.672L-4.283 0Zm2.655-8.829a7.267 7.267 0 0 1 1.749.68c1.183.662 2.593 1.973 2.593 4.467 0 2.494-1.411 3.8-2.595 4.457-1.572.87-3.433 1-4.402 1h-6.109a.888.888 0 0 1-.887-.888c0-.157.092-.423.19-.548l6.071-7.727h-5.374a.889.889 0 0 1-.887-.888v-7.947a.888.888 0 1 1 1.775.005v7.055H0c.208 0 .424.005.645.018l5.971-7.598a.889.889 0 0 1 1.607.52c0 .157-.096.429-.194.553z" clip-path="url(#i)" transform="matrix(.35278 0 0 -.35278 86.729 32.594)"/><path fill="#162739" d="M0 0c-4.25 0-7.454 3.295-7.454 7.665S-4.25 15.33 0 15.33c4.343 0 7.877-3.439 7.877-7.665S4.343 0 0 0m0 17.105c-5.261 0-9.229-4.058-9.229-9.44S-5.261-1.775 0-1.775c5.322 0 9.652 4.235 9.652 9.44 0 5.205-4.33 9.44-9.652 9.44" clip-path="url(#j)" transform="matrix(.35278 0 0 -.35278 98.278 38.003)"/><path fill="#162739" d="M0 0c-4.25 0-7.454 3.295-7.454 7.665S-4.25 15.33 0 15.33c4.343 0 7.877-3.439 7.877-7.665S4.343 0 0 0m0 17.105c-5.261 0-9.228-4.058-9.228-9.44S-5.261-1.775 0-1.775c5.322 0 9.652 4.235 9.652 9.44 0 5.205-4.33 9.44-9.652 9.44" clip-path="url(#k)" transform="matrix(.35278 0 0 -.35278 110.325 38.003)"/><path fill="#162739" d="M0 0c-.359 0-.7-.235-.819-.545l-6.514-15.202L-13.839-.57a.904.904 0 0 1-.828.57.887.887 0 0 1-.887-.887c0-.096.037-.269.074-.356l7.33-17.106a.913.913 0 0 1 .817-.538c.351 0 .679.217.816.538L.801-1.272c.046.096.088.279.088.385A.89.89 0 0 1 0 0" clip-path="url(#l)" transform="matrix(.35278 0 0 -.35278 124.265 31.968)"/><path fill="#162739" d="M0 0h12.219a.889.889 0 0 1 0 1.775H0A.887.887 0 0 1 0 0" clip-path="url(#m)" transform="matrix(.35278 0 0 -.35278 130.617 32.595)"/><path fill="#162739" d="M0 0h10.998a.888.888 0 0 1 0 1.776H0A.888.888 0 0 1 0 0" clip-path="url(#n)" transform="matrix(.35278 0 0 -.35278 130.617 35.612)"/><path fill="#162739" d="M0 0h-12.219a.889.889 0 0 1 0-1.775H0A.887.887 0 0 1 0 0" clip-path="url(#o)" transform="matrix(.35278 0 0 -.35278 134.927 38.003)"/><path fill="#359dd5" d="M0 0h-22.235v8.704h26.88c1.939 0 1.985 3.744 1.985 7.533 0 3.743-.046 7.441-1.985 7.441l-41.132-.045c-.677 0-1.218-.541-1.218-1.263V-2.571h39.42C1.505-1.069 1.046 0 0 0" clip-path="url(#p)" transform="matrix(.35278 0 0 -.35278 13.301 49.126)"/><path fill="#359dd5" d="M0 0c0 1.894-3.879 1.894-7.758 1.894-3.833 0-7.756 0-7.756-1.849v-24.851H0Z" clip-path="url(#q)" transform="matrix(.35278 0 0 -.35278 35.107 41.283)"/><path fill="#359dd5" d="M0 0c0 1.894-3.879 1.894-7.758 1.894-3.833 0-7.712 0-7.712-1.849v-24.851H0Z" clip-path="url(#r)" transform="matrix(.35278 0 0 -.35278 22.601 41.283)"/><path fill="#359dd5" d="M0 0h-25.933c-.676 0-1.218-.586-1.218-1.308v-24.941H18.91c.458 1.77.709 3.67.709 5.683C19.619-8.073 10.418 0 0 0" clip-path="url(#s)" transform="matrix(.35278 0 0 -.35278 46.867 40.773)"/><path fill="#359dd5" d="M0 0c4.781 0 9.922-1.443 13.891-4.24.226-.135.406-.225.632-.225 1.533 0 3.382 2.976 4.735 6.133.812 1.94 1.804 4.691 1.804 6.495 0 .722-.18 1.263-.586 1.534-5.818 4.194-12.223 5.862-20.656 5.862-17.152 0-30.067-11.332-32.306-27.15H-15.4A15.993 15.993 0 0 0 0 0" clip-path="url(#t)" transform="matrix(.35278 0 0 -.35278 90.62 45.944)"/><path fill="#359dd5" d="M0 0c0 1.894-3.879 1.894-7.757 1.894-3.834 0-7.757 0-7.757-1.849v-24.851H0Z" clip-path="url(#u)" transform="matrix(.35278 0 0 -.35278 117.264 41.283)"/><path fill="#359dd5" d="M0 0c0 1.894-3.879 1.894-7.758 1.894-3.833 0-7.712 0-7.712-1.849v-24.851H0Z" clip-path="url(#v)" transform="matrix(.35278 0 0 -.35278 104.759 41.283)"/><path fill="#359dd5" d="M0 0h-25.933c-.676 0-1.218-.586-1.218-1.308v-24.941h46.064c.445 1.772.707 3.662.707 5.683C19.62-8.073 10.419 0 0 0" clip-path="url(#w)" transform="matrix(.35278 0 0 -.35278 128.319 40.773)"/><path fill="#1d70ac" d="M0 0h41.132c1.939 0 1.985 3.788 1.985 7.487 0 3.788-.046 7.532-2.03 7.532l-26.835-.046v10.644h22.235c1.849 0 1.894 3.293 1.894 6.585 0 1.411-.018 2.814-.179 3.969h-39.42V1.308C-1.218.631-.677 0 0 0" clip-path="url(#x)" transform="matrix(.35278 0 0 -.35278 .43 62.794)"/><path fill="#1d70ac" d="M0 0c15.92 0 25.482 9.246 25.482 20.296v16.777H9.967V24.851c0-6.043-4.6-9.065-9.967-9.065-5.954 0-9.967 3.428-9.967 9.065v12.222h-15.471V20.296C-25.438 9.652-16.462 0 0 0" clip-path="url(#y)" transform="matrix(.35278 0 0 -.35278 26.117 63.112)"/><path fill="#1d70ac" d="M0 0c3.879 0 7.758.045 7.758 1.849v19.844h8.253l10.193-20.34C26.88 0 30.985 0 35.089 0c3.563 0 7.171 0 7.171 1.623 0 .226-.091.497-.226.767L29.947 25.076c4.016 2.409 7.084 6.411 8.402 11.501H-7.712V1.849C-7.712.045-3.879 0 0 0" clip-path="url(#z)" transform="matrix(.35278 0 0 -.35278 40.01 62.937)"/><path fill="#1d70ac" d="M0 0c8.434 0 14.838 1.804 20.656 5.908.451.271.586.902.586 1.669 0 1.849-.947 4.691-1.804 6.675-1.533 3.473-3.337 5.773-4.69 5.773-.226 0-.451-.045-.677-.18C10.058 17.139 4.961 15.65.18 15.65c-8.524 0-16.1 6.72-16.1 16.507 0 1.762.252 3.42.7 4.961h-17.086a35.354 35.354 0 0 1-.347-4.961C-32.653 13.801-18.897 0 0 0" clip-path="url(#A)" transform="matrix(.35278 0 0 -.35278 90.556 63.128)"/><path fill="#1d70ac" d="M0 0c15.92 0 25.482 9.246 25.482 20.296v16.777H9.967V24.851c0-6.043-4.6-9.065-9.967-9.065-5.954 0-9.967 3.428-9.967 9.065v12.222h-15.47V20.296C-25.437 9.652-16.463 0 0 0" clip-path="url(#B)" transform="matrix(.35278 0 0 -.35278 108.275 63.112)"/><path fill="#1d70ac" d="M0 0c3.879 0 7.712 0 7.712 1.894v19.799h11.681c8.739 0 16.599 5.663 18.913 14.884H-7.758V1.849C-7.758 0-3.924 0 0 0" clip-path="url(#C)" transform="matrix(.35278 0 0 -.35278 121.477 62.937)"/><path fill="#162739" d="M0 0c0 .395 0 .807.223 1.082l9.206 11.216c.876 1.047 1.254 2.164 1.254 2.937 0 1.133-.893 2.044-2.593 2.044-1.632 0-2.903-.773-3.865-1.924a.402.402 0 0 0-.292-.103c-.515 0-1.477.704-2.507 1.614-.98.894-1.563 1.546-1.563 1.941a.35.35 0 0 0 .103.258c2.919 3.229 5.599 4.242 8.604 4.242 4.689 0 8.382-2.508 8.382-7.832 0-1.992-1.254-4.5-2.336-5.805l-4.071-4.895 6.149.034c.688 0 .688-1.408.688-2.799 0-1.409 0-2.817-.688-2.817L.532-.824C0-.824 0-.412 0 0" clip-path="url(#D)" transform="matrix(.35278 0 0 -.35278 59.647 20.025)"/><path fill="#162739" d="M0 0c0 3.452-.412 6.217-2.971 6.217S-5.942 3.349-5.96 0c0-3.349.67-6.201 2.989-6.201C-.67-6.201 0-3.435 0 0m-11.988 0c0 6.733 2.147 12.246 9.017 12.246 6.853 0 9.017-5.513 9-12.246 0-6.802-1.374-12.246-9-12.246-6.682 0-9.017 5.444-9.017 12.246" clip-path="url(#E)" transform="matrix(.35278 0 0 -.35278 69.999 16.123)"/><path fill="#162739" d="M0 0c0 .395 0 .807.223 1.082l9.206 11.215c.876 1.048 1.254 2.165 1.254 2.937 0 1.134-.893 2.044-2.593 2.044-1.632 0-2.903-.773-3.865-1.924a.406.406 0 0 0-.292-.103c-.515 0-1.477.705-2.507 1.615-.98.893-1.563 1.546-1.563 1.941 0 .103.034.189.103.257 2.919 3.229 5.599 4.243 8.604 4.243 4.689 0 8.382-2.508 8.382-7.832 0-1.993-1.254-4.5-2.336-5.805l-4.071-4.895 6.149.034c.688 0 .688-1.408.688-2.8 0-1.408 0-2.816-.688-2.816L.532-.825C0-.825 0-.413 0 0" clip-path="url(#F)" transform="matrix(.35278 0 0 -.35278 59.647 27.455)"/><path fill="#162739" d="M0 0v2.731h-10.477c-.515 0-.515.343-.515.721 0 .361 0 .704.189 1.151l8.227 18.584c.24.532 1.769.532 3.28.532 1.391 0 2.783 0 2.783-.635a.604.604 0 0 0-.052-.224L-2.886 8.45H0v2.491c0 .687 1.374.687 2.731.687 1.357 0 2.731 0 2.731-.687V8.45H6.63c.687 0 .687-1.426.687-2.851 0-1.443 0-2.868-.687-2.868H5.462V0c0-.687-1.374-.687-2.749-.687C1.357-.687 0-.687 0 0" clip-path="url(#G)" transform="matrix(.35278 0 0 -.35278 69.502 27.618)"/><path fill="#ffcc07" d="m0 0-2.275-7.002 5.956 4.328 5.956-4.328L7.362 0l5.956 4.327H5.956l-2.275 7.002-2.275-7.002h-7.362z" clip-path="url(#H)" transform="matrix(.35278 0 0 -.35278 65.113 3.997)"/><path fill="#ffcc07" d="m0 0-2.275-7.002 5.956 4.328 5.956-4.328L7.362 0l5.956 4.327H5.956l-2.275 7.002-2.275-7.002h-7.362z" clip-path="url(#I)" transform="matrix(.35278 0 0 -.35278 75.837 6.87)"/><path fill="#ffcc07" d="m0 0-2.275-7.002 5.956 4.328 5.956-4.328L7.362 0l5.956 4.327H5.956l-2.275 7.002-2.275-7.002h-7.362z" clip-path="url(#J)" transform="matrix(.35278 0 0 -.35278 83.687 14.72)"/><path fill="#ffcc07" d="m0 0-2.275 7.002L-4.55 0h-7.362l5.956-4.327-2.275-7.002 5.956 4.327 5.956-4.327-2.275 7.002L7.362 0Z" clip-path="url(#K)" transform="matrix(.35278 0 0 -.35278 88.662 23.918)"/><path fill="#ffcc07" d="m0 0 5.956-4.327-2.275 7.001 5.956 4.328H2.275L0 14.003l-2.275-7.001h-7.362l5.956-4.328-2.275-7.001z" clip-path="url(#L)" transform="matrix(.35278 0 0 -.35278 44.963 26.388)"/><path fill="#ffcc07" d="m0 0-2.275-7.002 5.956 4.328 5.956-4.328L7.362 0l5.956 4.327H5.956l-2.275 7.002-2.275-7.002h-7.362z" clip-path="url(#M)" transform="matrix(.35278 0 0 -.35278 46.538 14.72)"/><path fill="#ffcc07" d="m0 0-2.275-7.002 5.956 4.328 5.956-4.328L7.362 0l5.956 4.327H5.956l-2.275 7.002-2.275-7.002h-7.362z" clip-path="url(#N)" transform="matrix(.35278 0 0 -.35278 54.389 6.87)"/><path fill="url(#O)" d="M64.689 129.393c-.807 0-1.843.088-2.304.194l-.879.204a49.75 49.75 0 0 1-.861.196c.004.001.004.002 0 .004-.005.001-.001.001.008.001.009 0 .393.088.853.195l.88.204c.46.107 1.496.194 2.303.194h87.23c.805 0 1.842-.087 2.302-.194l.88-.204c.46-.107.843-.195.853-.195h.008c-.005-.002-.005-.004 0-.005a50.943 50.943 0 0 1-.862-.196l-.879-.204c-.46-.106-1.497-.194-2.303-.194z" transform="translate(-40.777 -54.083)"/><path fill="#162739" d="M0 0v13.051c0 .396.84.406 1.701.406.85 0 1.69-.01 1.69-.406V0c0-.405-.84-.415-1.69-.415C.84-.415 0-.405 0 0" clip-path="url(#P)" transform="matrix(.35278 0 0 -.35278 54.465 78.259)"/><path fill="#162739" d="M0 0v10.086h-3.629c-.395 0-.395.82-.395 1.651 0 .82 0 1.631.405 1.631H7.02c.405 0 .405-.811.405-1.631 0-.831 0-1.651-.405-1.651H3.391V.01c0-.415-.85-.415-1.7-.415C.85-.405 0-.405 0 0" clip-path="url(#Q)" transform="matrix(.35278 0 0 -.35278 59.872 78.262)"/><path fill="#162739" d="M0 0h2.65L1.325 3.085Zm-5.675-4.43c0 .04.01.089.039.149L.712 8.997c.099.198.346.198.593.198.248 0 .485 0 .583-.198L8.247-4.291a.278.278 0 0 0 .039-.139c0-.355-.861-.375-1.711-.375-.958 0-1.908.01-2.037.326l-.702 1.73h-5.052l-.712-1.73c-.139-.316-1.088-.326-2.047-.326-.85 0-1.7 0-1.7.375" clip-path="url(#R)" transform="matrix(.35278 0 0 -.35278 65.75 76.71)"/><path fill="#162739" d="M0 0v13.081c0 .405.84.405 1.7.405.851 0 1.691 0 1.691-.405V3.006l5.893-.01c.435 0 .435-.811.435-1.642 0-.82 0-1.641-.445-1.641H.267C.118-.287 0-.148 0 0" clip-path="url(#S)" transform="matrix(.35278 0 0 -.35278 71.254 78.272)"/><path fill="#162739" d="M0 0v5.003l-4.42 7.95a.406.406 0 0 0-.049.168c0 .346.84.356 1.681.356.939 0 1.878 0 2.036-.326l2.453-4.608 2.452 4.618c.138.316 1.088.316 2.027.316.84 0 1.671 0 1.671-.356 0-.05-.02-.109-.05-.168L3.392 4.994V.01c0-.415-.851-.415-1.701-.415C.84-.405 0-.405 0 0" clip-path="url(#T)" transform="matrix(.35278 0 0 -.35278 77.487 78.262)"/><path fill="#359dd5" d="m0 0-4.576-4.576a2.067 2.067 0 0 0-2.923 0c-1.301 1.301-3.527.379-3.527-1.462v-9.4a2.066 2.066 0 0 0-2.067-2.066h-7.828a2.066 2.066 0 0 0-2.067 2.066v9.651c0 1.841-2.226 2.763-3.527 1.461l-.251-.25a2.066 2.066 0 0 0-2.922 0L-34.265 0a2.066 2.066 0 0 0 0 2.922l15.672 15.669a2.066 2.066 0 0 0 2.922 0L0 2.922A2.066 2.066 0 0 0 0 0m14.908 5.846c-2.41 15.372-15.84 27.151-32.041 27.151-16.2 0-29.63-11.779-32.04-27.151A31.945 31.945 0 0 1-49.56.885c0-17.769 14.522-32.157 32.427-32.157S15.295-16.884 15.295.885c0 1.688-.133 3.344-.387 4.961" clip-path="url(#U)" transform="matrix(.35278 0 0 -.35278 72.495 52.096)"/><path fill="#1d70ac" d="M0 0c17.905 0 32.428 14.388 32.428 32.157 0 1.687-.133 3.344-.387 4.961H14.208l2.925-2.924a2.066 2.066 0 0 0 0-2.922l-4.577-4.577a2.066 2.066 0 0 0-2.922 0c-1.302 1.302-3.527.38-3.527-1.461v-9.4a2.067 2.067 0 0 0-2.067-2.066h-7.829a2.066 2.066 0 0 0-2.066 2.066v9.651c0 1.841-2.226 2.763-3.528 1.461l-.25-.251a2.067 2.067 0 0 0-2.923 0l-4.576 4.577a2.066 2.066 0 0 0 0 2.922l2.924 2.924H-32.04a31.955 31.955 0 0 1-.387-4.961C-32.427 14.388-17.905 0 0 0" clip-path="url(#V)" transform="matrix(.35278 0 0 -.35278 66.45 63.128)"/></svg>
